<svg xmlns="http://www.w3.org/2000/svg" xmlns:xlink="http://www.w3.org/1999/xlink" version="1" width="96" height="96"><defs><linearGradient id="c"><stop offset="0" stop-color="#fff"/><stop offset="1" stop-color="#fff" stop-opacity="0"/></linearGradient><linearGradient id="b"><stop offset="0" stop-color="#fff" stop-opacity=".718"/><stop offset="1" stop-color="#fff"/></linearGradient><linearGradient x1="45.448" y1="92.54" x2="45.448" y2="7.017" id="a" gradientUnits="userSpaceOnUse" gradientTransform="matrix(1.00587 0 0 .99417 100 0)"><stop offset="0"/><stop offset="1" stop-opacity=".588"/></linearGradient><linearGradient x1="32.251" y1="6.132" x2="32.251" y2="90.239" id="f" xlink:href="#a" gradientUnits="userSpaceOnUse" gradientTransform="matrix(1.0238 0 0 1.012 -1.143 -98.07)"/><linearGradient x1="32.251" y1="6.132" x2="32.251" y2="90.239" id="g" xlink:href="#a" gradientUnits="userSpaceOnUse" gradientTransform="matrix(1.0238 0 0 1.012 -1.143 -98.07)"/><linearGradient x1="32.251" y1="6.132" x2="32.251" y2="90.239" id="h" xlink:href="#a" gradientUnits="userSpaceOnUse" gradientTransform="matrix(1.0238 0 0 1.012 -1.143 -98.07)"/><linearGradient x1="32.251" y1="6.132" x2="32.251" y2="90.239" id="i" xlink:href="#a" gradientUnits="userSpaceOnUse" gradientTransform="translate(0 -97)"/><linearGradient x1="32.251" y1="6.132" x2="32.251" y2="90.239" id="e" xlink:href="#a" gradientUnits="userSpaceOnUse" gradientTransform="matrix(1.0238 0 0 1.012 -1.143 -98.07)"/><radialGradient cx="48" cy="87.792" r="42" fx="48" fy="87.792" id="k" xlink:href="#b" gradientUnits="userSpaceOnUse" gradientTransform="matrix(1 0 0 1.2558 110 -24.506)"/><linearGradient x1="48" y1="88" x2="48" y2="-40" id="l" xlink:href="#c" gradientUnits="userSpaceOnUse" gradientTransform="matrix(1 0 0 -1 0 92)"/><linearGradient x1="48" y1="82" x2="112.124" y2="82.455" id="m" xlink:href="#c" gradientUnits="userSpaceOnUse" spreadMethod="reflect"/><linearGradient id="d"><stop offset="0" stop-color="#523823"/><stop offset=".118" stop-color="#79563a"/><stop offset=".238" stop-color="#875c38"/><stop offset="1" stop-color="#a66e40"/></linearGradient><linearGradient x1="8" y1="1033.362" x2="50" y2="1033.362" id="j" xlink:href="#d" gradientUnits="userSpaceOnUse" gradientTransform="translate(-2 -956.362)" spreadMethod="reflect"/><filter id="n" color-interpolation-filters="sRGB"><feFlood flood-opacity=".498" flood-color="#000" result="flood"/><feComposite in="flood" in2="SourceGraphic" operator="in" result="composite1"/><feGaussianBlur in="composite1" result="blur"/><feOffset dx="3.2" dy="2.1" result="offset"/><feComposite in="SourceGraphic" in2="offset" result="composite2"/></filter></defs><g transform="scale(1 -1)"><path d="M12-95.03C6.49-95.03 1.97-90.51 1.97-85v71C1.97-8.49 6.49-3.97 12-3.97h72c5.51 0 10.03-4.52 10.03-10.03v-71c0-5.51-4.52-10.03-10.03-10.03H12z" opacity=".08" fill="url(#e)"/><path d="M12-94.03c-4.972 0-9.03 4.058-9.03 9.03v71c0 4.972 4.058 9.03 9.03 9.03h72c4.972 0 9.03-4.058 9.03-9.03v-71c0-4.972-4.058-9.03-9.03-9.03H12z" opacity=".1" fill="url(#f)"/><path d="M12-93c-4.41 0-8 3.59-8 8v71c0 4.41 3.59 8 8 8h72c4.41 0 8-3.59 8-8v-71c0-4.41-3.59-8-8-8H12z" opacity=".2" fill="url(#g)"/><rect width="86" height="85" rx="7" ry="7" x="5" y="-92" opacity=".3" fill="url(#h)"/><rect width="84" height="84" rx="6" ry="6" x="6" y="-91" opacity=".45" fill="url(#i)"/></g><rect width="84" height="26" rx="6" ry="6" x="6" y="64" color="#000" fill="url(#j)" overflow="visible" enable-background="accumulate"/><path d="M6 82v2c0 3.324 2.676 6 6 6h72c3.324 0 6-2.676 6-6v-2c0 3.324-2.676 6-6 6H12c-3.324 0-6-2.676-6-6z" opacity=".1" color="#000" overflow="visible" enable-background="accumulate"/><path d="M6 83v1c0 3.324 2.676 6 6 6h72c3.324 0 6-2.676 6-6v-1c0 3.324-2.676 6-6 6H12c-3.324 0-6-2.676-6-6z" opacity=".1" color="#000" overflow="visible" enable-background="accumulate"/><path d="M6 80v1c0 3.324 2.676 6 6 6h72c3.324 0 6-2.676 6-6v-1c0 3.324-2.676 6-6 6H12c-3.324 0-6-2.676-6-6z" opacity=".2"/><rect width="84" height="80" rx="6" ry="6" x="6" y="-86" transform="scale(1 -1)" fill="#f60"/><path d="M120.78 6.125A5.977 5.977 0 0 0 116 12v68c0 3.324 2.676 6 6 6h72c3.324 0 6-2.676 6-6V12a5.977 5.977 0 0 0-4.78-5.875A4.98 4.98 0 0 1 199.03 11v68a4.998 4.998 0 0 1-5.03 5.03h-72a4.998 4.998 0 0 1-5.03-5.03V11a4.98 4.98 0 0 1 3.81-4.875z" opacity=".2" fill="url(#k)"/><path d="M12 86c-3.324 0-6-2.676-6-6V12c0-3.324 2.676-6 6-6h72c3.324 0 6 2.676 6 6v68c0 3.324-2.676 6-6 6zm0-.97h72A4.998 4.998 0 0 0 89.03 80V12A4.998 4.998 0 0 0 84 6.97H12A4.998 4.998 0 0 0 6.97 12v68A4.998 4.998 0 0 0 12 85.03z" opacity=".35" fill="url(#l)"/><path d="M6 78v2c0 3.324 2.676 6 6 6h72c3.324 0 6-2.676 6-6v-2c0 3.324-2.676 6-6 6H12c-3.324 0-6-2.676-6-6z" opacity=".15" fill="url(#m)"/><path d="M62.314 77.206c-1.462-.616-2.135-1.366-4.348-6.467l-1.295-2.985-2.148-.242c-1.183-.133-2.984-.758-4.004-1.388-1.574-.972-2.522-1.15-6.284-1.17-3.496-.022-4.86-.245-6.467-1.058-1.764-.893-2.648-1-6.61-.802-5.754.288-9.11-.81-12.334-4.034-2.927-2.926-3.99-5.257-3.904-8.57.386-15.095.31-14.383 1.75-16.558.742-1.123 2.21-2.61 3.26-3.306 1.05-.695 2.164-1.878 2.475-2.628.767-1.852 3.8-4.73 5.89-5.587.943-.386 2.696-.864 3.895-1.062 1.2-.198 3.226-1.08 4.505-1.96 4.388-3.017 9.856-3.41 14.562-1.047 2.073 1.042 2.684 1.14 4.752.752 2.627-.49 6.66.064 8.905 1.225.762.394 2.363 1.78 3.558 3.08 1.195 1.3 2.988 2.732 3.985 3.183 2.472 1.12 6.15 4.598 7.354 6.958 1.628 3.192 1.694 6.798.203 11.076-.793 2.276-1.35 5.08-1.467 7.368-.292 5.765-2.638 10.03-6.858 12.466-.79.455-.76.688.406 3.32 1.542 3.48 1.577 3.387.152 5.5-1.837 2.726-7.49 4.967-9.934 3.938zm5.006-4.423c2.75-1.678 2.814-.645.634-5.298-1.072-2.288-1.95-4.395-1.95-4.682 0-.286.894-.762 1.987-1.056 1.093-.294 2.828-1.294 3.855-2.222 4.54-4.1 3.708-12.51-1.545-15.64-.88-.526-3.035-1.308-4.786-1.74-3.016-.74-3.183-.856-3.183-2.217 0-1.4.063-1.435 2.465-1.42 3.314.02 6.827 1.44 9.375 3.79l2.1 1.936.5-1.31c.273-.722.498-2.435.498-3.808 0-4.2-2.523-7.47-7.478-9.688-1.192-.533-2.544-1.678-3.28-2.777-1.842-2.746-4.954-4.202-8.377-3.918-5.144.426-8.96 3.36-8.68 6.674.122 1.464.43 1.873 1.944 2.584 2.216 1.04 2.558 1.553 1.88 2.82-.668 1.248-2.684 1.29-4.648.098-1.434-.87-1.49-.866-3.164.27-1.243.844-2.24 1.118-3.683 1.012-1.833-.135-1.98-.252-1.98-1.595 0-1.24.23-1.495 1.59-1.774 2.115-.43 2.9-1.152 3.594-3.304.84-2.592 2.365-5.547 3.514-6.802l.996-1.086-1.327-.505c-2.51-.954-5.738-.598-8.39.923-1.36.78-2.764 1.77-3.12 2.2-.376.45-1.397.78-2.428.78-4.117 0-7.793 2.353-8.896 5.695-.29.883-.97 1.745-1.51 1.916-3.054.97-5.828 5.498-5.114 8.345.28 1.11.32 1.118 2.118.365 1.372-.574 2.854-.705 5.882-.517 4.164.258 5.5.822 5.5 2.317 0 1.637-1.072 1.98-4.375 1.398-3.62-.637-6.33-.04-8.17 1.8-.943.943-1.166 1.676-1.166 3.843 0 2.274.245 2.996 1.616 4.794.888 1.164 2.484 2.605 3.547 3.2 1.963 1.102 6.597 1.973 7.505 1.412.308-.19.023-1.222-.745-2.702-1.443-2.78-1.236-4.44.552-4.44.877 0 1.5.63 2.665 2.693 3.453 6.12 10.405 8.085 16.114 4.557.91-.563 2.604-2.504 3.765-4.316 2.803-4.374 4.58-5.612 8.07-5.62 2.675-.007 2.7.006 2.7 1.462 0 1.357-.157 1.49-2.076 1.746-2.475.33-4.008 1.648-5.98 5.14-.79 1.4-2 2.99-2.69 3.533-.688.542-1.252 1.11-1.252 1.263 0 .488 3.932 1.357 4.84 1.07 1.466-.467 2.928.86 4.69 6.332.476 1.48 1.468 2.86 1.583 3.06.38.67 2.332.378 3.915-.587zM43.703 51.137c-1.207-1.207-.74-5.177.805-6.83 2.49-2.666 6.746-3.59 7.765-1.687.487.91.248 2.426-.4 2.54-.174.03-1.08.14-2.015.247-2.33.264-3.177 1.256-3.083 3.61.058 1.467-.153 2.08-.843 2.45-1.204.644-1.263.635-2.23-.33z" fill="#fff" filter="url(#n)"/></svg>