<?xml version="1.0" encoding="UTF-8" standalone="no"?>
<svg
   xmlns:dc="http://purl.org/dc/elements/1.1/"
   xmlns:cc="http://creativecommons.org/ns#"
   xmlns:rdf="http://www.w3.org/1999/02/22-rdf-syntax-ns#"
   xmlns:svg="http://www.w3.org/2000/svg"
   xmlns="http://www.w3.org/2000/svg"
   xmlns:xlink="http://www.w3.org/1999/xlink"
   xmlns:sodipodi="http://sodipodi.sourceforge.net/DTD/sodipodi-0.dtd"
   xmlns:inkscape="http://www.inkscape.org/namespaces/inkscape"
   version="1"
   width="96"
   height="96"
   id="svg150"
   sodipodi:docname="aiml-gtk-logo.svg"
   inkscape:version="0.92.1 r">
  <metadata
     id="metadata154">
    <rdf:RDF>
      <cc:Work
         rdf:about="">
        <dc:format>image/svg+xml</dc:format>
        <dc:type
           rdf:resource="http://purl.org/dc/dcmitype/StillImage" />
      </cc:Work>
    </rdf:RDF>
  </metadata>
  <sodipodi:namedview
     pagecolor="#ffffff"
     bordercolor="#666666"
     borderopacity="1"
     objecttolerance="10"
     gridtolerance="10"
     guidetolerance="10"
     inkscape:pageopacity="0"
     inkscape:pageshadow="2"
     inkscape:window-width="1920"
     inkscape:window-height="1013"
     id="namedview152"
     showgrid="false"
     inkscape:zoom="2.4583333"
     inkscape:cx="-147.99857"
     inkscape:cy="33.986848"
     inkscape:window-x="0"
     inkscape:window-y="0"
     inkscape:window-maximized="1"
     inkscape:current-layer="svg150" />
  <defs
     id="defs106">
    <linearGradient
       id="d">
      <stop
         offset="0"
         stop-color="#fff"
         id="stop2" />
      <stop
         offset="1"
         stop-color="#fff"
         stop-opacity="0"
         id="stop4" />
    </linearGradient>
    <linearGradient
       id="c">
      <stop
         offset="0"
         stop-color="#fff"
         stop-opacity=".718"
         id="stop7" />
      <stop
         offset="1"
         stop-color="#fff"
         id="stop9" />
    </linearGradient>
    <linearGradient
       x1="45.448"
       y1="92.54"
       x2="45.448"
       y2="7.017"
       id="g"
       gradientUnits="userSpaceOnUse"
       gradientTransform="scale(1.00587 .99417)">
      <stop
         offset="0"
         id="stop12" />
      <stop
         offset="1"
         stop-opacity=".588"
         id="stop14" />
    </linearGradient>
    <linearGradient
       id="a">
      <stop
         offset="0"
         stop-color="#fff"
         id="stop17" />
      <stop
         offset="1"
         stop-color="#fff"
         stop-opacity="0"
         id="stop19" />
    </linearGradient>
    <filter
       color-interpolation-filters="sRGB"
       id="h">
      <feGaussianBlur
         stdDeviation="1.71"
         id="feGaussianBlur22" />
    </filter>
    <linearGradient
       x1="45.448"
       y1="92.54"
       x2="45.448"
       y2="7.017"
       id="b"
       gradientUnits="userSpaceOnUse"
       gradientTransform="matrix(1.00587 0 0 .99417 100 0)">
      <stop
         offset="0"
         id="stop25" />
      <stop
         offset="1"
         stop-opacity=".588"
         id="stop27" />
    </linearGradient>
    <linearGradient
       x1="32.251"
       y1="6.132"
       x2="32.251"
       y2="90.239"
       id="j"
       xlink:href="#b"
       gradientUnits="userSpaceOnUse"
       gradientTransform="matrix(1.0238 0 0 1.0119 -1.143 -98.07)" />
    <linearGradient
       x1="32.251"
       y1="6.132"
       x2="32.251"
       y2="90.239"
       id="k"
       xlink:href="#b"
       gradientUnits="userSpaceOnUse"
       gradientTransform="matrix(1.0238 0 0 1.0119 -1.143 -98.07)" />
    <linearGradient
       x1="32.251"
       y1="6.132"
       x2="32.251"
       y2="90.239"
       id="l"
       xlink:href="#b"
       gradientUnits="userSpaceOnUse"
       gradientTransform="matrix(1.0238 0 0 1.0119 -1.143 -98.07)" />
    <linearGradient
       x1="32.251"
       y1="6.132"
       x2="32.251"
       y2="90.239"
       id="m"
       xlink:href="#b"
       gradientUnits="userSpaceOnUse"
       gradientTransform="translate(0 -97)" />
    <linearGradient
       x1="32.251"
       y1="6.132"
       x2="32.251"
       y2="90.239"
       id="i"
       xlink:href="#b"
       gradientUnits="userSpaceOnUse"
       gradientTransform="matrix(1.0238 0 0 1.0119 -1.143 -98.07)" />
    <radialGradient
       cx="48"
       cy="87.792"
       r="42"
       fx="48"
       fy="87.792"
       id="o"
       xlink:href="#c"
       gradientUnits="userSpaceOnUse"
       gradientTransform="matrix(1 0 0 1.2558 110 -24.506)" />
    <linearGradient
       x1="48"
       y1="88"
       x2="48"
       y2="-40"
       id="p"
       xlink:href="#d"
       gradientUnits="userSpaceOnUse"
       gradientTransform="matrix(1 0 0 -1 0 92)" />
    <linearGradient
       x1="48"
       y1="82"
       x2="112.124"
       y2="82.455"
       id="q"
       xlink:href="#d"
       gradientUnits="userSpaceOnUse"
       spreadMethod="reflect" />
    <linearGradient
       id="e">
      <stop
         offset="0"
         stop-color="#523823"
         id="stop38" />
      <stop
         offset=".118"
         stop-color="#79563a"
         id="stop40" />
      <stop
         offset=".238"
         stop-color="#875c38"
         id="stop42" />
      <stop
         offset="1"
         stop-color="#a66e40"
         id="stop44" />
    </linearGradient>
    <linearGradient
       x1="8"
       y1="1033.362"
       x2="50"
       y2="1033.362"
       id="n"
       xlink:href="#e"
       gradientUnits="userSpaceOnUse"
       gradientTransform="translate(-2 -956.362)"
       spreadMethod="reflect" />
    <linearGradient
       id="f">
      <stop
         offset="0"
         stop-color="#3abef0"
         id="stop48" />
      <stop
         offset="1"
         stop-color="#0f96c9"
         id="stop50" />
    </linearGradient>
    <filter
       id="r"
       color-interpolation-filters="sRGB">
      <feColorMatrix
         values="0 0 0 0 0 0 0 0 0 0 0 0 0 0 0 0.21 0.72 0.07 0 0"
         result="result1"
         id="feColorMatrix53" />
      <feColorMatrix
         values="1 0 0 0 0 0 1 0 0 0 0 0 1 0 0 0 0 0 2 0"
         result="result9"
         id="feColorMatrix55" />
      <feComposite
         in2="result9"
         in="SourceGraphic"
         operator="in"
         result="result4"
         id="feComposite57" />
      <feFlood
         result="result2"
         flood-color="#000"
         id="feFlood59" />
      <feComposite
         in2="result9"
         operator="in"
         result="result10"
         id="feComposite61" />
      <feComposite
         in2="result4"
         operator="atop"
         id="feComposite63" />
      <feGaussianBlur
         stdDeviation="3"
         result="result8"
         id="feGaussianBlur65" />
      <feOffset
         dx="-28.2"
         dy="5.3"
         result="result3"
         in="result8"
         id="feOffset67" />
      <feFlood
         flood-opacity="1"
         flood-color="#DBAD3E"
         result="result5"
         id="feFlood69" />
      <feMerge
         result="result6"
         id="feMerge77">
        <feMergeNode
           in="result5"
           id="feMergeNode71" />
        <feMergeNode
           in="result3"
           id="feMergeNode73" />
        <feMergeNode
           in="result4"
           id="feMergeNode75" />
      </feMerge>
      <feComposite
         in2="SourceGraphic"
         operator="in"
         result="fbSourceGraphic"
         id="feComposite79" />
      <feColorMatrix
         result="fbSourceGraphicAlpha"
         in="fbSourceGraphic"
         values="0 0 0 -1 0 0 0 0 -1 0 0 0 0 -1 0 0 0 0 1 0"
         id="feColorMatrix81" />
      <feFlood
         flood-opacity=".396"
         flood-color="#000"
         result="flood"
         id="feFlood83" />
      <feComposite
         in2="fbSourceGraphic"
         in="flood"
         operator="in"
         result="composite1"
         id="feComposite85" />
      <feGaussianBlur
         in="composite1"
         result="blur"
         id="feGaussianBlur87" />
      <feOffset
         dx="-1.9"
         dy="1.1"
         result="offset"
         id="feOffset89" />
      <feComposite
         in2="offset"
         in="fbSourceGraphic"
         result="fbSourceGraphic"
         id="feComposite91" />
      <feColorMatrix
         result="fbSourceGraphicAlpha"
         in="fbSourceGraphic"
         values="0 0 0 -1 0 0 0 0 -1 0 0 0 0 -1 0 0 0 0 1 0"
         id="feColorMatrix93" />
      <feFlood
         flood-opacity=".396"
         flood-color="#000"
         result="flood"
         id="feFlood95" />
      <feComposite
         in2="fbSourceGraphic"
         in="flood"
         operator="in"
         result="composite1"
         id="feComposite97" />
      <feGaussianBlur
         in="composite1"
         result="blur"
         id="feGaussianBlur99" />
      <feOffset
         dx="-1.9"
         dy="1.1"
         result="offset"
         id="feOffset101" />
      <feComposite
         in2="offset"
         in="fbSourceGraphic"
         result="composite2"
         id="feComposite103" />
    </filter>
    <filter
       style="color-interpolation-filters:sRGB;"
       inkscape:label="Drop Shadow"
       id="filter4621">
      <feFlood
         flood-opacity="0.498039"
         flood-color="rgb(0,0,0)"
         result="flood"
         id="feFlood4611" />
      <feComposite
         in="flood"
         in2="SourceGraphic"
         operator="in"
         result="composite1"
         id="feComposite4613" />
      <feGaussianBlur
         in="composite1"
         stdDeviation="1.38778e-16"
         result="blur"
         id="feGaussianBlur4615" />
      <feOffset
         dx="3.2"
         dy="2.1"
         result="offset"
         id="feOffset4617" />
      <feComposite
         in="SourceGraphic"
         in2="offset"
         operator="over"
         result="composite2"
         id="feComposite4619" />
    </filter>
  </defs>
  <g
     transform="scale(1 -1)"
     id="g118">
    <path
       d="M12-95.03C6.49-95.03 1.97-90.51 1.97-85v71C1.97-8.49 6.49-3.97 12-3.97h72c5.51 0 10.03-4.52 10.03-10.03v-71c0-5.51-4.52-10.03-10.03-10.03H12z"
       opacity=".08"
       fill="url(#i)"
       id="path108" />
    <path
       d="M12-94.03c-4.972 0-9.03 4.058-9.03 9.03v71c0 4.972 4.058 9.03 9.03 9.03h72c4.972 0 9.03-4.058 9.03-9.03v-71c0-4.972-4.058-9.03-9.03-9.03H12z"
       opacity=".1"
       fill="url(#j)"
       id="path110" />
    <path
       d="M12-93c-4.41 0-8 3.59-8 8v71c0 4.41 3.59 8 8 8h72c4.41 0 8-3.59 8-8v-71c0-4.41-3.59-8-8-8H12z"
       opacity=".2"
       fill="url(#k)"
       id="path112" />
    <rect
       width="86"
       height="85"
       rx="7"
       ry="7"
       x="5"
       y="-92"
       opacity=".3"
       fill="url(#l)"
       id="rect114" />
    <rect
       width="84"
       height="84"
       rx="6"
       ry="6"
       x="6"
       y="-91"
       opacity=".45"
       fill="url(#m)"
       id="rect116" />
  </g>
  <rect
     width="84"
     height="26"
     rx="6"
     ry="6"
     x="6"
     y="64"
     color="#000"
     fill="url(#n)"
     overflow="visible"
     enable-background="accumulate"
     id="rect120" />
  <path
     d="M6 82v2c0 3.324 2.676 6 6 6h72c3.324 0 6-2.676 6-6v-2c0 3.324-2.676 6-6 6H12c-3.324 0-6-2.676-6-6z"
     opacity=".1"
     color="#000"
     overflow="visible"
     enable-background="accumulate"
     id="path122" />
  <path
     d="M6 83v1c0 3.324 2.676 6 6 6h72c3.324 0 6-2.676 6-6v-1c0 3.324-2.676 6-6 6H12c-3.324 0-6-2.676-6-6z"
     opacity=".1"
     color="#000"
     overflow="visible"
     enable-background="accumulate"
     id="path124" />
  <path
     d="M6 80v1c0 3.324 2.676 6 6 6h72c3.324 0 6-2.676 6-6v-1c0 3.324-2.676 6-6 6H12c-3.324 0-6-2.676-6-6z"
     opacity=".2"
     id="path126" />
  <rect
     width="84"
     height="80"
     rx="6"
     ry="6"
     x="6"
     y="-86"
     transform="scale(1 -1)"
     fill="#3abefc"
     id="rect128"
     style="fill:#ff6600" />
  <path
     d="M120.78 6.125A5.977 5.977 0 0 0 116 12v68c0 3.324 2.676 6 6 6h72c3.324 0 6-2.676 6-6V12a5.977 5.977 0 0 0-4.78-5.875A4.98 4.98 0 0 1 199.03 11v68a4.998 4.998 0 0 1-5.03 5.03h-72a4.998 4.998 0 0 1-5.03-5.03V11a4.98 4.98 0 0 1 3.81-4.875z"
     opacity=".2"
     fill="url(#o)"
     id="path130" />
  <path
     d="M12 86c-3.324 0-6-2.676-6-6V12c0-3.324 2.676-6 6-6h72c3.324 0 6 2.676 6 6v68c0 3.324-2.676 6-6 6zm0-.97h72A4.998 4.998 0 0 0 89.03 80V12A4.998 4.998 0 0 0 84 6.97H12A4.998 4.998 0 0 0 6.97 12v68A4.998 4.998 0 0 0 12 85.03z"
     opacity=".35"
     fill="url(#p)"
     id="path132" />
  <path
     d="M6 78v2c0 3.324 2.676 6 6 6h72c3.324 0 6-2.676 6-6v-2c0 3.324-2.676 6-6 6H12c-3.324 0-6-2.676-6-6z"
     opacity=".15"
     fill="url(#q)"
     id="path134" />
  <path
     style="fill:#ffffff;stroke-width:0.48971933;filter:url(#filter4621)"
     d="M 62.314131,77.205654 C 60.851868,76.589557 60.179237,75.839782 57.966148,70.739316 L 56.671467,67.755487 54.521682,67.513179 C 53.339299,67.379907 51.537774,66.755351 50.518295,66.125278 48.944367,65.152534 47.99626,64.97575 44.234373,64.953591 40.738405,64.932973 39.374472,64.710092 37.767186,63.896688 36.002595,63.00368 35.118866,62.896539 31.155975,63.09515 25.403249,63.383467 22.048214,62.285938 18.822946,59.060671 15.895921,56.133647 14.834357,53.803264 14.919225,50.491077 15.306039,35.394606 15.230796,36.106656 16.66899,33.932402 c 0.743,-1.123263 2.210402,-2.611082 3.260892,-3.306263 1.05049,-0.695182 2.164263,-1.877857 2.475052,-2.628166 0.767172,-1.852118 3.800173,-4.728774 5.890709,-5.587055 0.942709,-0.387035 2.694975,-0.865409 3.893924,-1.063054 1.198949,-0.197645 3.226311,-1.079153 4.50525,-1.958908 4.387727,-3.018225 9.856412,-3.411902 14.562235,-1.048299 2.073251,1.041333 2.684215,1.137982 4.751879,0.751701 2.628235,-0.491007 6.66126,0.06347 8.906442,1.224501 0.761376,0.393723 2.362165,1.779554 3.557316,3.079626 1.19515,1.300071 2.988649,2.732756 3.985551,3.183744 2.472226,1.118406 6.149455,4.597874 7.353537,6.958067 1.628258,3.191653 1.694527,6.797688 0.203537,11.076149 -0.7931,2.275847 -1.351145,5.078144 -1.46712,7.367352 -0.292084,5.765441 -2.637854,10.029104 -6.858642,12.466281 -0.788575,0.455341 -0.760069,0.688379 0.406075,3.319569 1.54242,3.480186 1.576892,3.387745 0.152323,5.501555 -1.836453,2.724974 -7.490997,4.965685 -9.933819,3.936452 z m 5.005371,-4.422773 c 2.751802,-1.677891 2.814657,-0.645101 0.63451,-5.297405 -1.07249,-2.288637 -1.949983,-4.395659 -1.949983,-4.682272 0,-0.286614 0.893982,-0.761837 1.986629,-1.056056 1.092652,-0.294218 2.826914,-1.294088 3.85392,-2.221925 4.539203,-4.1009 3.708776,-12.511433 -1.544384,-15.641399 -0.88149,-0.525214 -3.035139,-1.307043 -4.785885,-1.737397 -3.015843,-0.74133 -3.183175,-0.857924 -3.183175,-2.217968 0,-1.39936 0.06205,-1.435124 2.46436,-1.420343 3.313372,0.02039 6.826403,1.440166 9.374026,3.788481 l 2.101445,1.937045 0.498304,-1.310637 c 0.274066,-0.72085 0.498304,-2.433891 0.498304,-3.806757 0,-4.200949 -2.522829,-7.46926 -7.478044,-9.687779 -1.191977,-0.533663 -2.543994,-1.678315 -3.280894,-2.777691 -1.841104,-2.746727 -4.952188,-4.202322 -8.375566,-3.918712 -5.143944,0.426151 -8.959572,3.35976 -8.680883,6.674209 0.123057,1.463558 0.431507,1.873188 1.945288,2.583373 2.215221,1.039264 2.55752,1.552966 1.879268,2.820289 -0.668119,1.248395 -2.683588,1.291082 -4.647505,0.09843 -1.433675,-0.870646 -1.488391,-0.865965 -3.163198,0.27059 -1.242777,0.843371 -2.240147,1.117137 -3.683139,1.010978 -1.833354,-0.134877 -1.978853,-0.252128 -1.978853,-1.594663 0,-1.241045 0.228062,-1.495725 1.58857,-1.773979 2.115289,-0.432623 2.899094,-1.153236 3.594705,-3.304894 0.838194,-2.5927 2.364372,-5.547395 3.513369,-6.801914 L 49.496153,21.627603 48.168686,21.1229 c -2.507928,-0.953512 -5.736788,-0.598329 -8.388701,0.922778 -1.359963,0.780058 -2.764282,1.769672 -3.12071,2.199141 -0.375569,0.452533 -1.396356,0.780853 -2.427767,0.780853 -4.116184,0 -7.792356,2.35381 -8.895213,5.6955 -0.291061,0.881922 -0.970813,1.743656 -1.510561,1.914965 -3.053461,0.969132 -5.828151,5.497373 -5.113434,8.345031 0.278583,1.10996 0.320531,1.117175 2.117891,0.364254 1.371644,-0.574588 2.853586,-0.704932 5.881383,-0.517298 4.163946,0.258042 5.501823,0.821506 5.501823,2.317163 0,1.636595 -1.073834,1.979569 -4.376496,1.397817 -3.618436,-0.637375 -6.330873,-0.03963 -8.171196,1.800688 -0.942161,0.942162 -1.164449,1.675598 -1.164449,3.842095 0,2.27416 0.243263,2.996584 1.614364,4.794217 0.8879,1.164117 2.484273,2.604538 3.547495,3.200933 1.962688,1.100943 6.596524,1.972011 7.504688,1.410734 0.307702,-0.190173 0.02357,-1.221355 -0.744397,-2.701576 -1.443034,-2.781385 -1.23683,-4.440241 0.551946,-4.440241 0.876596,0 1.500414,0.630558 2.664605,2.693393 3.453199,6.118729 10.405293,8.084453 16.114004,4.556275 0.909654,-0.562198 2.603774,-2.504052 3.764713,-4.31523 2.804206,-4.374854 4.580599,-5.612029 8.070839,-5.620973 2.67561,-0.0069 2.700498,0.0066 2.700498,1.462237 0,1.357796 -0.157371,1.490162 -2.07617,1.746261 -2.474948,0.33032 -4.008191,1.648488 -5.978694,5.140035 -0.790667,1.400979 -2.001351,2.990706 -2.690415,3.532723 -0.689065,0.542016 -1.252845,1.110556 -1.252845,1.263422 0,0.488103 3.932241,1.356527 4.839108,1.068699 1.466817,-0.465551 2.928552,0.861248 4.689734,6.333114 0.476806,1.481402 1.469246,2.858737 1.583953,3.060747 0.380472,0.670058 2.332621,0.376961 3.91482,-0.587776 z M 43.703003,51.136899 c -1.207086,-1.207088 -0.73896,-5.176546 0.805456,-6.829825 2.490657,-2.666219 6.745605,-3.590693 7.764442,-1.686983 0.487158,0.910262 0.24792,2.426058 -0.400698,2.538816 -0.173189,0.03011 -1.079586,0.141551 -2.014216,0.247652 -2.329846,0.264489 -3.177071,1.256818 -3.083183,3.611242 0.05846,1.466022 -0.152892,2.080028 -0.843148,2.449438 -1.20345,0.644069 -1.26308,0.63523 -2.228653,-0.33034 z"
     id="path4655"
     inkscape:connector-curvature="0"
     sodipodi:nodetypes="cscccccssssscssscssscscsssscccscsssscsccscsscscssssssscssssssssssscscccssssccscccscscccsscsscc" />
</svg>
